<?xml version="1.0" standalone="no"?><!DOCTYPE svg PUBLIC "-//W3C//DTD SVG 1.1//EN" "http://www.w3.org/Graphics/SVG/1.1/DTD/svg11.dtd"><svg t="1605517420906" class="icon" viewBox="0 0 1024 1024" version="1.1" xmlns="http://www.w3.org/2000/svg" p-id="70135" xmlns:xlink="http://www.w3.org/1999/xlink" width="200" height="200"><defs><style type="text/css"></style></defs><path d="M904 0H473.8l-70.8 512 70.8 512H904z" fill="#9BD6FF" p-id="70136"></path><path d="M43.8 0H474v1024H43.8z" fill="#C4EAFF" p-id="70137"></path><path d="M792.8 220H473.8l-23.6-31.4 23.6-31.4h319zM792.8 327.8H473.8l-23.6-31.4 23.6-31.4h319zM792.8 435.6H473.8l-23.6-31.4 23.6-31.4h319zM792.8 543.4H473.8L450.2 512l23.6-31.4h319zM792.8 651.2H473.8l-23.6-31.4 23.6-31.4h319z" fill="#2D64BC" p-id="70138"></path><path d="M371 265h102.8v62.6h-102.8zM155 265H298v62.6H155zM155 372.8h318.8v62.6H155zM155 480.6h318.8v62.6H155zM155 588.4h318.8v62.6H155zM155 157.2h318.8v62.6H155z" fill="#6499F3" p-id="70139"></path><path d="M608.6 759h-135.8l-23.6-31.4 23.6-31.4h135.8z" fill="#2D64BC" p-id="70140"></path><path d="M155 696.2h318.8v62.6H155z" fill="#6499F3" p-id="70141"></path><path d="M870 325.4L462.6 760h60l391-391z" fill="#FF8E00" p-id="70142"></path><path d="M870 325.4l-16.4-16.4 60 60 60.4-60.4c16.6-16.6 16.6-43.4 0-60l-104 76.8z" fill="#E04C00" p-id="70143"></path><path d="M974 248.8c-16.6-16.6-43.4-16.6-60 0l-60.4 60.4 30 30 90.4-90.4z" fill="#FF7D3C" p-id="70144"></path><path d="M853.6 309.2L462.6 700.2V760l421-420.8z" fill="#FFBA00" p-id="70145"></path></svg>