<?xml version="1.0" standalone="no"?><!DOCTYPE svg PUBLIC "-//W3C//DTD SVG 1.1//EN" "http://www.w3.org/Graphics/SVG/1.1/DTD/svg11.dtd"><svg t="1605515159020" class="icon" viewBox="0 0 1077 1024" version="1.1" xmlns="http://www.w3.org/2000/svg" p-id="21090" xmlns:xlink="http://www.w3.org/1999/xlink" width="210.3515625" height="200"><defs><style type="text/css"></style></defs><path d="M1013.221053 544.336842c0 258.694737-210.189474 474.273684-474.273685 474.273684S64.673684 808.421053 64.673684 544.336842 274.863158 70.063158 538.947368 70.063158s474.273684 210.189474 474.273685 474.273684" fill="#E4EDFF" p-id="21091"></path><path d="M80.842105 458.105263H10.778947c-5.389474 0-10.778947-5.389474-10.778947-10.778947 0-10.778947 5.389474-16.168421 10.778947-16.168421h70.063158c5.389474 0 10.778947 5.389474 10.778948 10.778947 5.389474 10.778947 0 16.168421-10.778948 16.168421z m986.273684 0h-70.063157c-5.389474 0-10.778947-5.389474-10.778948-10.778947s5.389474-10.778947 10.778948-10.778948h70.063157c5.389474-5.389474 10.778947 0 10.778948 10.778948 0 5.389474-5.389474 10.778947-10.778948 10.778947zM538.947368 97.010526c-5.389474 0-10.778947-5.389474-10.778947-16.168421V10.778947c0-5.389474 5.389474-10.778947 10.778947-10.778947s10.778947 5.389474 10.778948 16.168421v70.063158c0 5.389474-5.389474 10.778947-10.778948 10.778947z m296.421053 91.621053c-5.389474 0-5.389474 0-10.778947-5.389474s-5.389474-16.168421 0-21.557894l48.505263-48.505264c5.389474-5.389474 16.168421-5.389474 21.557895 0 5.389474 5.389474 5.389474 16.168421 0 21.557895l-48.505264 48.505263c-5.389474 5.389474-5.389474 5.389474-10.778947 5.389474z m-587.452632 0c5.389474 0 5.389474 0 10.778948-5.389474s5.389474-16.168421 0-21.557894l-48.505263-43.11579c-5.389474-5.389474-16.168421-5.389474-21.557895 0-5.389474 5.389474-5.389474 16.168421 0 21.557895l48.505263 48.505263h10.778947z" fill="#1A192B" p-id="21092"></path><path d="M555.115789 959.326316H274.863158c-53.894737 0-97.010526-43.115789-97.010526-97.010527v-172.463157c0-53.894737 43.115789-97.010526 97.010526-97.010527h280.252631c53.894737 0 97.010526 43.115789 97.010527 97.010527V862.315789c0 53.894737-43.115789 97.010526-97.010527 97.010527" fill="#FFFFFF" p-id="21093"></path><path d="M495.831579 549.726316c0 48.505263-37.726316 91.621053-91.621053 91.621052s-91.621053-37.726316-91.621052-91.621052 37.726316-91.621053 91.621052-91.621053c48.505263 5.389474 91.621053 43.115789 91.621053 91.621053" fill="#FFFFFF" p-id="21094"></path><path d="M565.894737 732.968421c0 43.115789-37.726316 80.842105-80.842105 80.842105s-80.842105-37.726316-80.842106-80.842105 37.726316-80.842105 80.842106-80.842105 80.842105 37.726316 80.842105 80.842105" fill="#FFC000" p-id="21095"></path><path d="M808.421053 959.326316h-183.242106c-48.505263 0-91.621053-37.726316-91.621052-91.621053V592.842105h361.094737v274.863158c5.389474 48.505263-37.726316 91.621053-86.231579 91.621053" fill="#FFC000" p-id="21096"></path><path d="M803.031579 646.736842c0 48.505263-37.726316 86.231579-86.231579 86.231579-48.505263 0-86.231579-37.726316-86.231579-86.231579 0-48.505263 37.726316-86.231579 86.231579-86.231579 48.505263 0 86.231579 37.726316 86.231579 86.231579" fill="#FFFFFF" p-id="21097"></path><path d="M894.652632 592.842105H538.947368V258.694737c0-5.389474 5.389474-10.778947 10.778948-10.778948h264.08421c43.115789 0 80.842105 37.726316 80.842106 80.842106V592.842105z" fill="#FFFFFF" p-id="21098"></path><path d="M474.273684 614.4h177.852632v-26.947368H474.273684z" fill="#1A192B" p-id="21099"></path><path d="M808.421053 964.715789H269.473684c-53.894737 0-91.621053-43.115789-91.621052-91.621052v-188.631579c0-53.894737 43.115789-91.621053 91.621052-91.621053h64.673684c5.389474 0 10.778947 5.389474 10.778948 10.778948s-5.389474 10.778947-10.778948 10.778947H269.473684c-37.726316 0-64.673684 32.336842-64.673684 64.673684v188.631579c0 37.726316 32.336842 64.673684 64.673684 64.673684h538.947369c37.726316 0 64.673684-32.336842 64.673684-64.673684v-258.694737h-91.621053c-5.389474 0-10.778947-5.389474-10.778947-10.778947s5.389474-10.778947 10.778947-10.778947h118.568421v285.642105c5.389474 48.505263-37.726316 91.621053-91.621052 91.621052" fill="#1A192B" p-id="21100"></path><path d="M813.810526 964.715789h-188.631579c-53.894737 0-91.621053-43.115789-91.621052-91.621052v-70.063158c0-5.389474 5.389474-10.778947 10.778947-10.778947s10.778947 5.389474 10.778947 10.778947v70.063158c0 37.726316 32.336842 64.673684 64.673685 64.673684H808.421053c37.726316 0 64.673684-32.336842 64.673684-64.673684V328.757895c0-37.726316-32.336842-64.673684-64.673684-64.673684h-258.694737v409.6c0 5.389474-5.389474 10.778947-10.778948 10.778947s-10.778947-5.389474-10.778947-10.778947V258.694737c0-10.778947 10.778947-21.557895 21.557895-21.557895h264.08421c53.894737 0 91.621053 43.115789 91.621053 91.621053v544.336842c0 48.505263-43.115789 91.621053-91.621053 91.621052m-344.926315-350.315789h-5.389474c-5.389474-5.389474-5.389474-10.778947-5.389474-21.557895 10.778947-10.778947 16.168421-26.947368 16.168421-43.115789 0-37.726316-32.336842-70.063158-70.063158-70.063158s-70.063158 32.336842-70.063158 70.063158c0 16.168421 5.389474 32.336842 16.168421 43.115789 5.389474 5.389474 5.389474 16.168421-5.389473 21.557895-5.389474 5.389474-16.168421 5.389474-21.557895-5.389474-10.778947-16.168421-21.557895-37.726316-21.557895-59.28421 0-53.894737 43.115789-97.010526 97.010527-97.010527s97.010526 43.115789 97.010526 97.010527c0 21.557895-5.389474 43.115789-21.557895 59.28421 5.389474 0 0 5.389474-5.389473 5.389474" fill="#1A192B" p-id="21101"></path><path d="M716.8 743.747368c-53.894737 0-97.010526-43.115789-97.010526-97.010526 0-21.557895 5.389474-43.115789 21.557894-59.28421 5.389474-5.389474 10.778947-5.389474 21.557895-5.389474 5.389474 5.389474 5.389474 10.778947 5.389474 21.557895-16.168421 16.168421-21.557895 32.336842-21.557895 43.115789 0 37.726316 32.336842 70.063158 70.063158 70.063158 37.726316 0 70.063158-32.336842 70.063158-70.063158 0-16.168421-5.389474-32.336842-16.168421-43.115789-5.389474-5.389474-5.389474-16.168421 5.389474-21.557895 5.389474-5.389474 16.168421-5.389474 21.557894 5.389474 10.778947 16.168421 21.557895 37.726316 21.557895 59.28421-5.389474 53.894737-48.505263 97.010526-102.4 97.010526M485.052632 835.368421c-26.947368 0-48.505263-10.778947-70.063158-26.947368-16.168421-16.168421-26.947368-43.115789-26.947369-70.063158s10.778947-48.505263 26.947369-70.063158c21.557895-21.557895 43.115789-26.947368 70.063158-26.947369 21.557895 0 43.115789 5.389474 59.28421 21.557895 5.389474 5.389474 5.389474 10.778947 0 21.557895-5.389474 5.389474-10.778947 5.389474-21.557895 0-10.778947-10.778947-26.947368-16.168421-43.115789-16.168421-16.168421 0-37.726316 5.389474-48.505263 21.557895-10.778947 10.778947-21.557895 32.336842-21.557895 48.505263s5.389474 37.726316 21.557895 48.505263c16.168421 10.778947 37.726316 21.557895 53.894737 21.557895 16.168421 0 26.947368-5.389474 43.115789-16.168421 5.389474-5.389474 16.168421-5.389474 21.557895 5.389473 5.389474 5.389474 5.389474 16.168421-5.389474 21.557895-16.168421 10.778947-37.726316 16.168421-59.28421 16.168421" fill="#1A192B" p-id="21102"></path></svg>