<svg t="1605491700693" class="icon" viewBox="0 0 1024 1024" version="1.1" xmlns="http://www.w3.org/2000/svg" p-id="16923" width="200" height="200"><path d="M934.025718 1023.992042H71.262188a19.89493 19.89493 0 0 1-19.89493-19.89493V22.942833a19.89493 19.89493 0 0 1 19.89493-19.89493h497.8746a19.89493 19.89493 0 1 1 0 39.78986H91.157118v941.364419h822.97367V426.88949a19.89493 19.89493 0 1 1 39.78986 0v577.21558a19.89493 19.89493 0 0 1-19.89493 19.886972z" p-id="16924"></path><path d="M471.675505 677.923715a19.89493 19.89493 0 0 1-14.04582-5.801361L346.09075 560.957444a19.886972 19.886972 0 0 1-0.047748-28.131431L871.11795 5.849109a19.871056 19.871056 0 0 1 14.053778-5.849109h0.03979c5.260219 0 10.313532 2.084989 14.045821 5.801362l111.538935 111.156952c7.782897 7.759023 7.798813 20.356492 0.047747 28.139389l-525.06699 526.984861a19.886972 19.886972 0 0 1-14.061736 5.849109l-0.03979-0.007958zM388.268001 546.816127l83.351798 83.065312 496.991265-498.797725L885.251308 48.026361 388.268001 546.816127z" p-id="16925"></path><path d="M266.288207 763.933476a19.918804 19.918804 0 0 1-14.380056-6.135596 19.918804 19.918804 0 0 1-3.604961-22.274364l93.553919-197.445242a19.910846 19.910846 0 0 1 32.022879-5.578538L485.442797 643.664646a19.886972 19.886972 0 0 1-6.326588 32.428736L273.999482 762.373714a19.81535 19.81535 0 0 1-7.711275 1.559762zM365.754898 580.573844l-59.199353 124.94016 129.794523-54.591687-70.59517-70.348473z" p-id="16926"></path></svg>