<?xml version="1.0" standalone="no"?><!DOCTYPE svg PUBLIC "-//W3C//DTD SVG 1.1//EN" "http://www.w3.org/Graphics/SVG/1.1/DTD/svg11.dtd"><svg t="1605515800099" class="icon" viewBox="0 0 1024 1024" version="1.1" xmlns="http://www.w3.org/2000/svg" p-id="47745" xmlns:xlink="http://www.w3.org/1999/xlink" width="200" height="200"><defs><style type="text/css"></style></defs><path d="M883.712 759.296H140.288c-24.576 0-44.032-19.968-44.032-44.032V200.704h832v514.56c0 24.576-19.968 44.032-44.544 44.032z" fill="#F44336" p-id="47746"></path><path d="M976.384 200.704H47.616c-24.576 0-44.032-19.968-44.032-44.032 0-24.576 19.968-44.032 44.032-44.032h928.768c24.576 0 44.032 19.968 44.032 44.032 0.512 24.576-19.456 44.032-44.032 44.032z" fill="#FFC107" p-id="47747"></path><path d="M524.288 935.424h-24.576c-3.072 0-5.12-2.56-5.12-5.12v-170.496h35.328v170.496c-0.512 2.56-2.56 5.12-5.632 5.12z" fill="#B0BEC5" p-id="47748"></path><path d="M471.552 949.248c0 22.016 17.92 40.448 40.448 40.448s40.448-17.92 40.448-40.448c0-22.016-17.92-40.448-39.936-40.448-22.528 0-40.448 17.92-40.96 40.448 0-0.512 0-0.512 0 0z" fill="#455A64" p-id="47749"></path><path d="M358.912 480.256c0 84.48 68.608 153.088 153.088 153.088s153.088-68.608 153.088-153.088-68.608-153.6-153.088-153.6-153.088 69.12-153.088 153.6z" fill="#FFEBEE" p-id="47750"></path><path d="M569.856 467.456L496.64 424.96c-10.24-5.632-22.528 1.536-22.528 12.8v84.992c0 11.776 12.288 18.944 22.528 12.8l73.216-42.496c10.24-5.12 10.24-19.968 0-25.6z" fill="#F44336" p-id="47751"></path></svg>