<?xml version="1.0" standalone="no"?><!DOCTYPE svg PUBLIC "-//W3C//DTD SVG 1.1//EN" "http://www.w3.org/Graphics/SVG/1.1/DTD/svg11.dtd"><svg t="1605515872406" class="icon" viewBox="0 0 1024 1024" version="1.1" xmlns="http://www.w3.org/2000/svg" p-id="50100" xmlns:xlink="http://www.w3.org/1999/xlink" width="200" height="200"><defs><style type="text/css"></style></defs><path d="M986.88 474.88C986.88 200.96 755.2-17.92 478.72 1.28 243.2 17.92 53.76 208.64 38.4 444.16 24.32 688.64 193.28 896 422.4 940.8c21.76 3.84 39.68 38.4 51.2 56.32l10.24 15.36c15.36 15.36 42.24 15.36 57.6 0l10.24-15.36c11.52-17.92 30.72-52.48 51.2-56.32 218.88-42.24 384-234.24 384-465.92z" fill="#5659E0" p-id="50101"></path><path d="M513.28 136.96c162.56 0 294.4 131.84 294.4 294.4s-131.84 294.4-294.4 294.4-294.4-131.84-294.4-294.4 131.84-294.4 294.4-294.4z" fill="#E4EDFF" p-id="50102"></path><path d="M759.04 737.28H252.16c-42.24 0-75.52-32-75.52-75.52V462.08c0-42.24 32-75.52 74.24-75.52h506.88c42.24 0 75.52 33.28 75.52 75.52v199.68c1.28 43.52-30.72 75.52-74.24 75.52z" fill="#FFFFFF" p-id="50103"></path><path d="M582.4 608c14.08-16.64 11.52-37.12 11.52-61.44 0-51.2-29.44-79.36-80.64-79.36s-79.36 28.16-79.36 79.36c0 23.04-3.84 44.8 10.24 61.44-35.84 23.04-60.16 64-60.16 108.8h258.56c0-44.8-24.32-85.76-60.16-108.8zM384 385.28h258.56c0-46.08-24.32-87.04-60.16-108.8 15.36-16.64 14.08-38.4 14.08-61.44 0-51.2-32-76.8-83.2-76.8s-83.2 25.6-83.2 76.8c0 24.32-1.28 46.08 14.08 62.72-35.84 21.76-60.16 61.44-60.16 107.52z" fill="#FFC000" p-id="50104"></path><path d="M798.72 385.28H226.56c-28.16 0-49.92 23.04-49.92 49.92v252.16c0 28.16 23.04 49.92 49.92 49.92h572.16c28.16 0 49.92-23.04 49.92-49.92V436.48c0-28.16-21.76-51.2-49.92-51.2zM455.68 619.52c15.36 12.8 35.84 20.48 57.6 20.48 21.76 0 42.24-7.68 57.6-20.48 33.28 19.2 55.04 55.04 56.32 94.72H398.08c2.56-39.68 23.04-75.52 57.6-94.72z m-10.24-72.96c0-37.12 30.72-67.84 67.84-67.84s67.84 30.72 67.84 67.84S550.4 614.4 513.28 614.4s-67.84-30.72-67.84-67.84z m378.88 142.08c0 14.08-11.52 25.6-25.6 25.6H652.8c-1.28-46.08-25.6-88.32-64-112.64 10.24-15.36 16.64-33.28 16.64-53.76 0-51.2-40.96-92.16-92.16-92.16s-92.16 40.96-92.16 92.16c0 20.48 6.4 38.4 16.64 53.76-38.4 24.32-62.72 66.56-64 112.64H226.56c-14.08 0-25.6-11.52-25.6-25.6V436.48c0-14.08 11.52-25.6 25.6-25.6h572.16c14.08 0 25.6 11.52 25.6 25.6v252.16zM455.68 286.72c15.36 12.8 35.84 20.48 57.6 20.48 21.76 0 42.24-7.68 57.6-20.48 35.84 20.48 56.32 57.6 56.32 98.56h25.6c0-48.64-24.32-92.16-64-117.76 10.24-15.36 16.64-33.28 16.64-53.76 0-51.2-40.96-92.16-92.16-92.16s-92.16 40.96-92.16 92.16c0 20.48 6.4 38.4 16.64 53.76-39.68 25.6-64 70.4-64 117.76h25.6c-1.28-40.96 20.48-78.08 56.32-98.56z m57.6-139.52c37.12 0 67.84 30.72 67.84 67.84S550.4 281.6 513.28 281.6s-67.84-30.72-67.84-67.84 30.72-66.56 67.84-66.56z" fill="#484578" p-id="50105"></path></svg>