<?xml version="1.0" standalone="no"?><!DOCTYPE svg PUBLIC "-//W3C//DTD SVG 1.1//EN" "http://www.w3.org/Graphics/SVG/1.1/DTD/svg11.dtd"><svg t="1605510179060" class="icon" viewBox="0 0 1024 1024" version="1.1" xmlns="http://www.w3.org/2000/svg" p-id="11753" xmlns:xlink="http://www.w3.org/1999/xlink" width="200" height="200"><defs><style type="text/css"></style></defs><path d="M880.16 309.792c-0.064-0.704-0.256-1.344-0.416-2.016-0.512-2.208-1.408-4.16-2.752-5.888-0.224-0.288-0.192-0.608-0.416-0.896l-245.632-277.984c-0.096-0.096-0.224-0.096-0.32-0.192-1.856-1.984-4.16-3.328-6.848-4.128-0.576-0.192-1.12-0.256-1.728-0.352-0.896-0.16-1.728-0.512-2.656-0.512L189.632 17.824c-25.376 0-46.048 20.768-46.048 46.336l0 895.68c0 25.536 20.672 46.336 46.048 46.336l644.736 0c25.408 0 46.048-20.8 46.048-46.336L880.416 311.232C880.416 310.72 880.192 310.272 880.16 309.792zM634.816 73.888l196.096 221.92-180.736 0c-6.752 0-15.36-12.96-15.36-23.168L634.816 73.888zM849.728 959.84c0 8.512-6.912 15.456-15.36 15.456L189.632 975.296c-8.608 0-15.36-6.784-15.36-15.456L174.272 64.16c0-8.544 6.912-15.456 15.36-15.456l414.496 0L604.128 272.64c0 24.992 20.096 54.048 46.048 54.048l199.552 0L849.728 959.84zM297.088 434.784c0 8.512 6.88 15.456 15.36 15.456l399.136 0c8.48 0 15.36-6.912 15.36-15.456 0-8.512-6.88-15.456-15.36-15.456L312.448 419.328C303.968 419.328 297.088 426.24 297.088 434.784zM711.552 542.88 312.448 542.88c-8.48 0-15.36 6.912-15.36 15.456 0 8.544 6.88 15.456 15.36 15.456l399.136 0c8.48 0 15.36-6.912 15.36-15.456C726.912 549.792 720.032 542.88 711.552 542.88zM312.448 326.688l184.224 0c8.48 0 15.36-6.912 15.36-15.456 0-8.512-6.88-15.456-15.36-15.456L312.448 295.776c-8.48 0-15.36 6.912-15.36 15.456C297.088 319.776 303.968 326.688 312.448 326.688zM711.552 666.432 312.448 666.432c-8.48 0-15.36 6.912-15.36 15.456 0 8.512 6.88 15.456 15.36 15.456l399.136 0c8.48 0 15.36-6.912 15.36-15.456C726.912 673.344 720.032 666.432 711.552 666.432zM711.552 789.984 312.448 789.984c-8.48 0-15.36 6.912-15.36 15.456 0 8.512 6.88 15.456 15.36 15.456l399.136 0c8.48 0 15.36-6.912 15.36-15.456C726.912 796.896 720.032 789.984 711.552 789.984z" p-id="11754"></path></svg>