<?xml version="1.0" standalone="no"?><!DOCTYPE svg PUBLIC "-//W3C//DTD SVG 1.1//EN" "http://www.w3.org/Graphics/SVG/1.1/DTD/svg11.dtd"><svg t="1605515463842" class="icon" viewBox="0 0 1146 1024" version="1.1" xmlns="http://www.w3.org/2000/svg" p-id="29144" xmlns:xlink="http://www.w3.org/1999/xlink" width="223.828125" height="200"><defs><style type="text/css"></style></defs><path d="M1040.530808 344.773003v49.982635L890.874744 420.519433l-149.716224-25.763795v-49.982635l60.632216-78.485625h178.159055l60.581017 78.485625z m0 0" fill="#FFD026" p-id="29145"></path><path d="M890.874744 432.425973h-2.026237l-149.657343-25.766356a11.89758 11.89758 0 0 1-9.870063-11.905259v-49.982635a11.8771 11.8771 0 0 1 2.499835-7.257587l60.514457-78.490746a11.92702 11.92702 0 0 1 9.397744-4.643832h178.161614a11.93214 11.93214 0 0 1 9.400304 4.643832l60.694936 78.490746a11.89246 11.89246 0 0 1 2.499836 7.257587v49.982635a11.90014 11.90014 0 0 1-9.880303 11.905259l-149.648384 25.766356h-2.086396z m-137.758484-47.608238l137.758484 23.804119 137.750804-23.804119v-35.701699l-54.508707-70.634119H807.507207l-54.508707 70.634119 0.11776 35.701699z m0 0" fill="#2FB1EA" p-id="29146"></path><path d="M1134.131927 399.27915v233.140081c0 82.814578-67.138445 149.955583-149.953023 149.955583H797.511704c-82.822258 0-149.955583-67.141005-149.955583-149.955583V399.27915c0-24.769238 15.225574-46.98872 38.318014-55.938464l31.066827-11.89758 173.932502 89.258087 173.932502-89.258087 31.060427 11.89758c23.07708 8.965105 38.273214 31.184587 38.265534 55.938464z m0 0" fill="#6DD0FC" p-id="29147"></path><path d="M1134.131927 399.27915v173.991382c0 82.822258-67.138445 149.953023-149.953023 149.953023H797.511704c-82.822258 0-149.955583-67.130765-149.955583-149.953023V399.27915c0-24.769238 15.225574-46.98872 38.318014-55.938464l31.066827-11.89758 173.932502 89.258087 173.932502-89.258087 31.060427 11.89758c23.07708 8.965105 38.273214 31.184587 38.265534 55.938464z m0 0" fill="#A4ECFF" p-id="29148"></path><path d="M984.178904 794.272393H797.511704c-89.352807-0.09344-161.758443-72.500356-161.860843-161.853162V399.27915c0.13824-29.620429 18.311649-56.163744 45.878961-67.001485l31.066827-11.90526a11.88478 11.88478 0 0 1 9.754864 0.537599l168.463071 86.461292 168.514271-86.643052a11.92958 11.92958 0 0 1 9.762544-0.529919l31.060427 11.89758c27.566033 10.839021 45.739442 37.387456 45.878961 67.002765v233.147761c0.00128 89.418087-72.433796 161.932523-161.851883 162.025962zM716.404643 344.358284l-26.120916 10.111983a48.385197 48.385197 0 0 0-30.712267 44.808883v233.140081c0.1024 76.205949 61.852054 137.955604 138.056724 138.058003h186.66592c76.205949-0.1024 137.955604-61.852054 138.056724-138.058003V399.27915a48.385197 48.385197 0 0 0-30.703308-44.808883l-26.128595-10.111983-169.17603 86.758251a11.89374 11.89374 0 0 1-10.887662 0l-169.05059-86.758251z m0 0" fill="#2D8CF0" p-id="29149"></path><path d="M944.843291 701.622312l-29.752269 41.06233a29.772749 29.772749 0 0 1-24.304598 12.596458 29.776589 29.776589 0 0 1-24.312278-12.596458l-29.752269-41.06233a59.935897 59.935897 0 0 1-10.649582-44.266164l27.553233-175.36226h74.977151l27.130834 175.18178a59.948697 59.948697 0 0 1-10.890222 44.446644z m0 0" fill="#FF8888" p-id="29150"></path><path d="M860.344236 481.993888l-9.697263 62.599573c24.391638 16.046053 55.996064 16.046053 80.387702 0l-9.695983-62.599573h-60.994456z m0 0" fill="#F97171" p-id="29151"></path><path d="M890.874744 767.08396a41.697209 41.697209 0 0 1-33.981382-17.37341l-29.752269-41.06233a71.417478 71.417478 0 0 1-12.732138-53.076389l27.311313-175.18178a11.90142 11.90142 0 0 1 11.90654-10.062063h74.977151a11.89758 11.89758 0 0 1 11.89758 10.062063l27.130833 175.18178a71.375238 71.375238 0 0 1-12.733418 53.076389l-29.752269 41.06233a41.669049 41.669049 0 0 1-34.271941 17.37341z m-27.313873-273.192492l-25.532117 165.071077a47.603118 47.603118 0 0 0 8.513266 35.701699l29.752269 41.05465a17.845729 17.845729 0 0 0 29.33115 0l29.752269-41.05465a47.596718 47.596718 0 0 0 8.514545-35.701699l-25.766356-165.071077h-54.565026z m0 0" fill="#2D8CF0" p-id="29152"></path><path d="M971.684846 447.243228l-59.802778 58.554779c-11.6147 11.5699-30.399948 11.5699-42.014648 0l-59.802778-58.677659 80.810102-32.666824 80.810102 32.789704z m0 0" fill="#FF8888" p-id="29153"></path><path d="M890.874744 526.325332a41.634489 41.634489 0 0 1-29.34011-11.906539l-59.802777-58.6687a11.90398 11.90398 0 0 1-3.334395-10.801901 11.92958 11.92958 0 0 1 7.205108-8.718065l80.802422-32.664265a11.86558 11.86558 0 0 1 8.927984 0l80.810102 32.664265a11.92062 11.92062 0 0 1 7.198708 8.718065 11.8835 11.8835 0 0 1-3.334395 10.801901l-59.802777 58.6687a41.625529 41.625529 0 0 1-29.32987 11.906539z m-59.505818-74.861952l46.82872 45.944242c7.046388 6.871028 18.297569 6.871028 25.351636 0l46.83128-45.944242-59.505818-23.796439-59.505818 23.796439z m0 0" fill="#2D8CF0" p-id="29154"></path><path d="M765.862478 280.153594l-61.937814 51.173032 84.789615 157.86597 89.142887-68.673163-111.994688-140.365839z m0 0" fill="#FFFFFF" p-id="29155"></path><path d="M801.674257 501.088895a11.020781 11.020781 0 0 1-2.498556 0 11.89118 11.89118 0 0 1-7.975666-5.948149l-84.732015-158.162929a11.90398 11.90398 0 0 1 2.911995-14.817255l61.887894-51.174312a11.8835 11.8835 0 0 1 8.812785-2.680316 11.83998 11.83998 0 0 1 8.083186 4.409593L900.158568 413.146646a11.90398 11.90398 0 0 1 2.513916 8.840945 11.86814 11.86814 0 0 1-4.541433 7.997426l-89.258087 68.673163a11.89886 11.89886 0 0 1-7.198707 2.430715z m-69.622921-166.609634l73.487234 136.857365 68.432523-52.719269-96.871514-121.625392-45.048243 37.487296z m0 0" fill="#2D8CF0" p-id="29156"></path><path d="M1002.859192 280.153594l61.889174 51.173032-84.740975 157.86469-89.133927-68.673163 111.985728-140.364559z m0 0" fill="#FFFFFF" p-id="29157"></path><path d="M980.007391 501.088895a11.89118 11.89118 0 0 1-7.256307-2.497275l-89.258087-68.665483a11.9411 11.9411 0 0 1-4.538873-7.997426 11.95518 11.95518 0 0 1 2.512636-8.847345l111.994688-140.431119a11.90398 11.90398 0 0 1 8.083186-4.408313 11.91678 11.91678 0 0 1 8.812785 2.686716l61.887894 51.173032a11.90398 11.90398 0 0 1 2.911995 14.818535l-84.674415 157.923569a11.87838 11.87838 0 0 1-7.975666 5.94815 11.42014 11.42014 0 0 1-2.499836 0.296959z m-72.294276-82.589298l68.431243 52.72183 73.489794-136.866326-45.044403-37.247936-96.876634 121.392432z m0 0" fill="#2D8CF0" p-id="29158"></path><path d="M890.817144 11.899333c79.972983 0 119.961395 39.987132 119.961395 119.962675v59.985817c0 79.972983-39.987132 119.961395-119.961395 119.961395-79.975543 0-119.962675-39.987132-119.962675-119.961395v-59.985817c0-79.975543 39.987132-119.962675 119.962675-119.962675z m0 0" fill="#FFD026" p-id="29159"></path><path d="M890.817144 11.899333c79.972983 0 119.961395 39.987132 119.961395 119.962675v18.325728c0 79.975543-39.987132 119.962675-119.961395 119.962675-79.975543 0-119.962675-39.987132-119.962675-119.962675v-18.325728c0-79.975543 39.987132-119.962675 119.962675-119.962675z m0 0" fill="#FFD026" p-id="29160"></path><path d="M890.874744 323.708079c-72.784515-0.09472-131.766814-59.078299-131.867934-131.860254v-59.985817a131.852574 131.852574 0 0 1 65.933967-114.195005 131.862814 131.862814 0 0 1 197.794221 114.195005v59.985817c-0.09472 72.781955-59.078299 131.764254-131.860254 131.860254z m0-299.911166c-59.658138 0.06656-107.998535 48.414637-108.063815 108.065095v59.985817a108.062535 108.062535 0 0 0 54.027427 93.57936 108.048455 108.048455 0 0 0 108.065095 0 108.045895 108.045895 0 0 0 54.027428-93.57936v-59.985817c-0.06528-59.650458-48.405677-107.998535-108.056135-108.065095z m0 0" fill="#2D8CF0" p-id="29161"></path><path d="M404.813496 344.773003v49.982635L255.165113 420.519433l-149.657344-25.763795v-49.982635l60.573336-78.485625h178.160335l60.572056 78.485625z m0 0" fill="#FFD026" p-id="29162"></path><path d="M255.165113 432.425973h-2.027517l-149.657344-25.766356a11.90398 11.90398 0 0 1-9.877743-11.905259v-49.982635a11.91678 11.91678 0 0 1 2.439676-7.257587l60.639896-78.490746a11.92574 11.92574 0 0 1 9.397744-4.643832h178.160335a11.92958 11.92958 0 0 1 9.400304 4.643832l60.637336 78.490746a11.89246 11.89246 0 0 1 2.499836 7.257587v49.982635a11.90014 11.90014 0 0 1-9.880303 11.905259L257.241269 432.425973h-2.076156zM117.406628 384.817735l137.758485 23.804119 137.750804-23.804119v-35.701699l-54.508707-70.932359H171.798855l-54.508706 70.635399 0.116479 35.998659z m0 0" fill="#2FB1EA" p-id="29163"></path><path d="M498.481176 399.27915v233.140081c0 82.814578-67.138445 149.955583-149.953023 149.955583H161.860952c-82.822258 0-149.955583-67.141005-149.955583-149.955583V399.27915c0-24.769238 15.225574-46.98872 38.318015-55.938464l31.066826-11.89758 173.932502 89.258087 174.047702-89.374567 31.066827 11.89886c23.064281 9.012465 38.215615 31.284426 38.143935 56.053664z m0 0" fill="#6DD0FC" p-id="29164"></path><path d="M498.481176 399.27915v173.991382c0 82.822258-67.138445 149.953023-149.953023 149.953023H161.860952c-82.822258 0-149.955583-67.130765-149.955583-149.953023V399.27915c0-24.769238 15.225574-46.98872 38.318015-55.938464l31.066826-11.89758 173.932502 89.258087 174.047702-89.374567 31.066827 11.89886c23.064281 9.012465 38.215615 31.284426 38.143935 56.053664z m0 0" fill="#A4ECFF" p-id="29165"></path><path d="M348.526873 794.272393H161.860952C72.508145 794.178954 0.101229 721.772038 0.00011 632.419231V399.27915c0.13824-29.620429 18.310369-56.163744 45.878961-67.001485l31.066827-11.90526a11.88478 11.88478 0 0 1 9.754863 0.537599l168.463072 86.461292 168.512991-86.643052a11.92958 11.92958 0 0 1 9.762543-0.529919l31.060427 11.89758c27.566033 10.839021 45.739442 37.387456 45.878962 67.002765v233.147761c0.00128 89.418087-72.435076 161.932523-161.851883 162.025962zM80.752611 344.358284l-26.360275 10.111983a48.377517 48.377517 0 0 0-30.704587 44.808883v233.140081c0.09472 76.205949 61.844374 137.955604 138.049044 138.058003h186.79136c76.204669-0.1024 137.954324-61.852054 138.049043-138.058003V399.27915a48.365997 48.365997 0 0 0-30.704587-44.808883l-26.120915-10.111983-169.115871 86.758251a11.8963 11.8963 0 0 1-10.888941 0l-168.994271-86.758251z m0 0" fill="#2D8CF0" p-id="29166"></path><path d="M309.13494 701.622312l-29.752269 41.06233a29.775309 29.775309 0 0 1-24.312278 12.596458 29.756109 29.756109 0 0 1-24.305879-12.596458l-29.752269-41.06233a59.942297 59.942297 0 0 1-10.648301-44.266164l27.311313-175.36226h74.739072l27.130833 175.18178a59.952537 59.952537 0 0 1-10.410222 44.446644z m0 0" fill="#FF8888" p-id="29167"></path><path d="M224.693485 481.993888l-9.639664 62.840213c24.391638 16.046053 55.996064 16.046053 80.397943 0l-9.762544-62.840213h-60.995735z m0 0" fill="#F97171" p-id="29168"></path><path d="M255.165113 767.08396a41.671609 41.671609 0 0 1-34.163142-17.31581l-29.752269-41.06233a71.413638 71.413638 0 0 1-12.732138-53.076389l27.138513-175.18178a11.90014 11.90014 0 0 1 11.89758-10.059503h74.861952a11.9027 11.9027 0 0 1 11.897579 10.059503l27.138514 175.18178a71.403398 71.403398 0 0 1-12.734698 53.076389l-29.752269 41.06233a41.690809 41.690809 0 0 1-33.799622 17.31581z m-27.254994-273.192492l-25.532116 165.071077a47.603118 47.603118 0 0 0 8.513265 35.701699l29.752269 41.05465a17.845729 17.845729 0 0 0 29.33115 0l29.752269-41.05465a47.590319 47.590319 0 0 0 8.513266-35.701699l-25.763796-165.071077h-54.566307z m0 0" fill="#2D8CF0" p-id="29169"></path><path d="M336.032814 447.243228l-59.869337 58.554779c-11.60702 11.5699-30.397388 11.5699-42.005688 0l-59.805338-58.677659 80.812662-32.666824 80.867701 32.789704z m0 0" fill="#FF8888" p-id="29170"></path><path d="M255.165113 526.325332a41.634489 41.634489 0 0 1-29.34011-11.906539l-59.802778-58.6687a11.90398 11.90398 0 0 1 3.864314-19.519966l80.867701-32.664265a11.86558 11.86558 0 0 1 8.927985 0l80.810101 32.664265a11.92062 11.92062 0 0 1 7.198708 8.718065 11.8835 11.8835 0 0 1-3.334394 10.801901l-59.802778 58.6687a41.621689 41.621689 0 0 1-29.388749 11.906539z m-59.505819-74.861952l46.82872 45.944242c7.046388 6.871028 18.297569 6.871028 25.351637 0l46.83128-45.944242-59.505818-23.796439-59.505819 23.796439z m0 0" fill="#2D8CF0" p-id="29171"></path><path d="M143.170424 280.153594l-61.880214 51.173032L166.022225 489.191316l89.142888-68.673163-111.994689-140.364559z m0 0" fill="#FFFFFF" p-id="29172"></path><path d="M166.022225 501.088895a11.031021 11.031021 0 0 1-2.499835 0 11.89118 11.89118 0 0 1-7.975667-5.948149L70.815988 336.977817a11.90398 11.90398 0 0 1 2.911995-14.817255l61.887894-51.174312a11.8835 11.8835 0 0 1 8.812785-2.680316 11.83998 11.83998 0 0 1 8.083186 4.409593l111.994689 140.431119a11.90398 11.90398 0 0 1 2.513915 8.840945 11.87326 11.87326 0 0 1-4.541432 7.997426l-89.076327 68.673163a11.91678 11.91678 0 0 1-7.380468 2.430715zM96.399304 334.479261l73.487235 136.857365 68.432522-52.719269-96.871514-121.625392-45.048243 37.487296z m0 0" fill="#2D8CF0" p-id="29173"></path><path d="M367.150841 280.153594l61.946774 51.173032-84.798575 157.86469-89.133927-68.673163 111.985728-140.364559z m0 0" fill="#FFFFFF" p-id="29174"></path><path d="M344.35664 501.088895a11.89118 11.89118 0 0 1-7.256308-2.497275l-89.258087-68.665483a11.94622 11.94622 0 0 1-4.538872-7.997426 11.95518 11.95518 0 0 1 2.512636-8.847345l112.052288-140.365839a11.8771 11.8771 0 0 1 8.085746-4.409593 11.89118 11.89118 0 0 1 8.817905 2.680316l61.880214 51.174312a11.90142 11.90142 0 0 1 2.920955 14.817255l-84.740975 157.865969a11.87838 11.87838 0 0 1-7.975666 5.94815 11.43934 11.43934 0 0 1-2.499836 0.296959z m-72.296836-82.589298l68.432522 52.72183 73.488515-136.866326-45.043123-37.247936-96.877914 121.392432z m0 0" fill="#2D8CF0" p-id="29175"></path><path d="M255.165113 11.899333c79.972983 0 119.961395 39.987132 119.961394 119.962675v59.985817c0 79.972983-39.987132 119.961395-119.961394 119.961395-79.975543 0-119.962675-39.987132-119.962675-119.961395v-59.985817c0-79.975543 39.987132-119.962675 119.962675-119.962675z m0 0" fill="#FFD026" p-id="29176"></path><path d="M255.165113 11.899333c79.972983 0 119.961395 39.987132 119.961394 119.962675v18.325728c0 79.975543-39.987132 119.962675-119.961394 119.962675-79.975543 0-119.962675-39.987132-119.962675-119.962675v-18.325728c0-79.975543 39.987132-119.962675 119.962675-119.962675z m0 0" fill="#FFD026" p-id="29177"></path><path d="M255.165113 323.708079c-72.792195-0.096-131.766814-59.078299-131.869215-131.860254v-59.985817C123.295898 59.035253 182.335797 0.001754 255.165113 0.001754c72.819075 0 131.860254 59.033499 131.860254 131.860254v59.985817c-0.09472 72.781955-59.077019 131.764254-131.860254 131.860254z m0-299.911166c-59.658138 0.06656-107.999815 48.414637-108.065095 108.065095v59.985817c0 59.678618 48.377517 108.056135 108.065095 108.056135 59.678618 0 108.056135-48.377517 108.056135-108.056135v-59.985817c-0.06528-59.650458-48.405677-107.998535-108.056135-108.065095z m0 0" fill="#2D8CF0" p-id="29178"></path><path d="M725.104788 573.988611v49.982634L575.448724 649.737601l-149.657344-25.766356v-49.982634l60.579737-78.490746h178.153935l60.579736 78.490746z m0 0" fill="#FFD026" p-id="29179"></path><path d="M575.448724 661.635181h-2.019836l-149.657344-25.763796a11.8963 11.8963 0 0 1-9.877743-11.89886v-49.982634a11.90014 11.90014 0 0 1 2.499835-7.263988l60.573337-78.782585a11.91166 11.91166 0 0 1 9.405424-4.641272h178.153935a11.90398 11.90398 0 0 1 9.407983 4.641272l60.573337 78.485626a11.90526 11.90526 0 0 1 2.499835 7.263987v49.982635a11.89758 11.89758 0 0 1-9.880303 11.898859L577.478801 661.338221l-2.030077 0.29696z m-137.750804-47.599279L575.448724 637.838741l137.758484-23.801559v-35.702979L658.699782 507.700084H492.494626l-54.499747 70.632839-0.296959 35.702979z m0 0" fill="#2FB1EA" p-id="29180"></path><path d="M818.707187 628.497317v233.140081c0 82.814578-67.138445 149.955583-149.953023 149.955583H482.144564c-82.814578 0-149.955583-67.141005-149.955583-149.955583V628.497317c0-24.769238 15.225574-46.9964 38.325694-55.938464l31.060427-11.89886 173.932502 89.258088 173.932502-89.258088 31.066827 11.89886c23.048921 8.985585 38.223295 31.197387 38.200254 55.938464z m0 0" fill="#6DD0FC" p-id="29181"></path><path d="M818.707187 628.497317v173.990102c0 82.817138-67.138445 149.955583-149.953023 149.955584H482.144564c-82.814578 0-149.955583-67.138445-149.955583-149.955584v-173.990102c0-24.769238 15.225574-46.9964 38.325694-55.938464l31.060427-11.89886 173.932502 89.258088 173.932502-89.258088 31.066827 11.89886c23.048921 8.985585 38.223295 31.197387 38.200254 55.938464z m0 0" fill="#A4ECFF" p-id="29182"></path><path d="M668.754164 1023.490561H482.144564c-89.352807-0.1024-161.758443-72.506756-161.853163-161.853163V628.497317c0.13824-29.622989 18.312929-56.163744 45.878961-67.009165l31.060427-11.89886a11.88734 11.88734 0 0 1 9.754864 0.5376l168.463071 86.463851 168.463072-86.462571a11.88734 11.88734 0 0 1 9.754863-0.5376l31.060427 11.89886c27.566033 10.845421 45.739442 37.386176 45.878961 67.009165v233.140081c-0.09472 89.345127-72.501636 161.749483-161.851883 161.851883zM400.979903 573.568771l-26.120915 10.118383c-18.449888 7.235828-30.609868 24.995797-30.704588 44.811443v233.140081c0.09472 76.204669 61.844374 137.954324 138.049044 138.049044h186.66592c76.205949-0.09472 137.955604-61.844374 138.056724-138.049044V628.497317c-0.09344-19.815646-12.259819-37.575616-30.703308-44.811443l-26.120915-10.118383-169.23363 86.941291a11.91934 11.91934 0 0 1-10.896622 0L400.979903 573.568771z m0 0" fill="#2D8CF0" p-id="29183"></path><path d="M629.360952 930.84048l-29.752269 41.062329a29.749709 29.749709 0 0 1-24.304599 12.595179 29.771469 29.771469 0 0 1-24.313558-12.595179l-29.752269-41.062329a59.960217 59.960217 0 0 1-10.648302-44.273845l27.130834-175.18178h74.977151l27.377873 175.23938a60.006297 60.006297 0 0 1-10.714861 44.216245z m0 0" fill="#FF8888" p-id="29184"></path><path d="M544.927176 711.384855l-9.704943 62.599573a73.151875 73.151875 0 0 0 80.395382 0l-9.703663-62.599573h-60.986776z m0 0" fill="#F97171" p-id="29185"></path><path d="M575.448724 996.294447a41.658809 41.658809 0 0 1-33.981382-17.37597l-29.752269-41.054649a71.437958 71.437958 0 0 1-12.732138-53.08407l27.135954-175.18178a11.90142 11.90142 0 0 1 11.898859-10.053102h74.977152a11.90782 11.90782 0 0 1 11.906539 10.053102l27.128274 175.18178a71.404678 71.404678 0 0 1-12.732138 53.08407l-29.752269 41.054649a41.638329 41.638329 0 0 1-34.096582 17.37597z m-27.312593-272.945452l-25.524436 165.062117a47.568559 47.568559 0 0 0 8.505585 35.702979l29.752269 41.06233a17.850849 17.850849 0 0 0 29.33755 0l29.752269-41.06233a47.632558 47.632558 0 0 0 8.506865-35.702979l-25.523156-165.127397-54.806946 0.06528z m0 0" fill="#2D8CF0" p-id="29186"></path><path d="M656.260106 676.453715l-59.802778 58.67766c-11.6147 11.5699-30.399948 11.5699-42.014648 0l-59.802778-58.67766L575.448724 643.789451l80.811382 32.664264z m0 0" fill="#FF8888" p-id="29187"></path><path d="M575.448724 755.716299a41.679289 41.679289 0 0 1-29.34011-11.897579l-59.563418-58.853019a11.9219 11.9219 0 0 1-3.334394-10.800622 11.90142 11.90142 0 0 1 7.205108-8.718065l80.802421-32.671944a11.93982 11.93982 0 0 1 8.927985 0l80.810102 32.671944a11.89118 11.89118 0 0 1 7.198707 8.718065 11.88222 11.88222 0 0 1-3.334394 10.800622l-60.035737 58.853019a41.649849 41.649849 0 0 1-29.33627 11.897579z m-59.504538-74.860671l46.82872 45.944241c7.052788 6.878708 18.297569 6.878708 25.351636 0l46.83128-45.944241-59.507098-23.79772-59.504538 23.79772z m0 0" fill="#2D8CF0" p-id="29188"></path><path d="M463.461716 509.305201l-61.887894 51.231913 84.732015 157.873649 89.142887-68.673162-111.987008-140.4324z m0 0" fill="#FFFFFF" p-id="29189"></path><path d="M486.546476 730.308343a11.998699 11.998699 0 0 1-2.499835 0 11.92574 11.92574 0 0 1-7.975667-5.94815l-84.732015-158.170609a11.89758 11.89758 0 0 1 2.911995-14.810855l61.889174-51.173032a11.89758 11.89758 0 0 1 8.810225-2.689275 11.93854 11.93854 0 0 1 8.092146 4.410872l111.985729 140.43112a11.91934 11.91934 0 0 1 2.513915 8.847344 11.87966 11.87966 0 0 1-4.541432 7.997427l-89.258087 68.664202a11.91422 11.91422 0 0 1-7.196148 2.440956z m-69.61524-166.619875l73.487234 136.866326 68.426123-52.72183-96.871515-121.507632-45.041842 37.363136z m0 0" fill="#2D8CF0" p-id="29190"></path><path d="M687.434452 509.305201l61.889174 51.231913-84.733295 157.873649-89.141607-68.673162 111.985728-140.4324z m0 0" fill="#FFFFFF" p-id="29191"></path><path d="M664.590331 730.308343a11.90782 11.90782 0 0 1-7.263987-2.499836l-89.258087-68.670602a11.87966 11.87966 0 0 1-4.531193-7.991026 11.87838 11.87838 0 0 1 2.512636-8.847345l111.987008-140.4324a11.90398 11.90398 0 0 1 16.902371-1.727997l61.880214 51.173032a11.89886 11.89886 0 0 1 2.919675 14.818535l-84.739694 157.87109a11.89374 11.89374 0 0 1-7.967987 5.95071 12.198379 12.198379 0 0 1-2.440956 0.355839z m-72.304516-82.590579l68.432523 52.72055 73.489794-136.863766-45.043123-37.247936-96.879194 121.391152z m0 0" fill="#2D8CF0" p-id="29192"></path><path d="M575.448724 241.117501c79.975543 0 119.962675 39.987132 119.962675 119.961394v59.978138c0 79.975543-39.987132 119.962675-119.962675 119.962674s-119.962675-39.987132-119.962674-119.962674v-59.978138c0-79.972983 39.988412-119.961395 119.962674-119.961394z m0 0" fill="#FFD026" p-id="29193"></path><path d="M575.448724 241.117501c79.975543 0 119.962675 39.987132 119.962675 119.961394v18.327009c0 79.975543-39.987132 119.962675-119.962675 119.962674s-119.962675-39.987132-119.962674-119.962674v-18.327009c0-79.972983 39.988412-119.961395 119.962674-119.961394z m0 0" fill="#FFD026" p-id="29194"></path><path d="M575.448724 552.923687c-72.784515-0.09984-131.766814-59.083419-131.860254-131.867934v-59.978138c0-72.826755 59.033499-131.867934 131.860254-131.867934s131.867934 59.039899 131.867934 131.867934v59.978138c-0.1024 72.784515-59.084699 131.768094-131.867934 131.867934z m0-299.908607c-59.650458 0.06528-107.998535 48.405677-108.063815 108.063815v59.978138a108.072775 108.072775 0 0 0 54.035108 93.587039c33.436103 19.299807 74.628992 19.299807 108.056135 0a108.070215 108.070215 0 0 0 54.036387-93.587039v-59.978138c-0.06528-59.658138-48.413357-107.998535-108.063815-108.063815z m0 0" fill="#2D8CF0" p-id="29195"></path></svg>