<?xml version="1.0" standalone="no"?><!DOCTYPE svg PUBLIC "-//W3C//DTD SVG 1.1//EN" "http://www.w3.org/Graphics/SVG/1.1/DTD/svg11.dtd"><svg t="1605515026117" class="icon" viewBox="0 0 1024 1024" version="1.1" xmlns="http://www.w3.org/2000/svg" p-id="16364" xmlns:xlink="http://www.w3.org/1999/xlink" width="200" height="200"><defs><style type="text/css"></style></defs><path d="M512 768c-159.744 0-287.744-128-287.744-287.744s128-287.744 287.744-287.744 287.744 128 287.744 287.744-128 287.744-287.744 287.744z m0-64c121.344 0 224.256-102.4 224.256-224.256S633.344 256 512 256 287.744 358.4 287.744 480.256s102.4 223.744 224.256 223.744z m-128 128h256c19.456 0 31.744 12.8 31.744 31.744s-12.8 31.744-31.744 31.744H384c-19.456 0-31.744-12.8-31.744-31.744s12.288-31.744 31.744-31.744z m64 128h128c19.456 0 31.744 12.8 31.744 31.744s-12.8 31.744-31.744 31.744h-128c-19.456 0-31.744-12.8-31.744-31.744s12.8-31.744 31.744-31.744z m448-512h64c19.456 0 31.744 12.8 31.744 31.744s-12.8 31.744-31.744 31.744H896c-19.456 0-31.744-12.8-31.744-31.744s12.288-31.744 31.744-31.744z m-832 0H128c19.456 0 31.744 12.8 31.744 31.744S147.456 512 128 512H64c-19.456 0-31.744-12.8-31.744-31.744s12.8-32.256 31.744-32.256zM512 0c19.456 0 31.744 12.8 31.744 31.744v64c0 19.456-12.8 31.744-31.744 31.744s-31.744-12.8-31.744-31.744V31.744c0-18.944 12.288-31.744 31.744-31.744zM173.056 140.8c12.8-12.8 31.744-12.8 45.056 0l45.056 45.056c12.8 12.8 12.8 31.744 0 45.056-12.8 12.8-31.744 12.8-45.056 0l-45.056-45.056c-13.312-12.8-13.312-32.256 0-45.056z m677.888 0c12.8 12.8 12.8 31.744 0 45.056l-45.056 45.056c-12.8 12.8-31.744 12.8-45.056 0-12.8-12.8-12.8-31.744 0-45.056l45.056-45.056c13.312-12.8 32.768-12.8 45.056 0z" fill="#666666" p-id="16365"></path><path d="M511.488 480.768m-224.768 0a224.768 224.768 0 1 0 449.536 0 224.768 224.768 0 1 0-449.536 0Z" fill="#33CDE5" p-id="16366"></path></svg>