<?xml version="1.0" standalone="no"?><!DOCTYPE svg PUBLIC "-//W3C//DTD SVG 1.1//EN" "http://www.w3.org/Graphics/SVG/1.1/DTD/svg11.dtd"><svg t="1605514767363" class="icon" viewBox="0 0 1024 1024" version="1.1" xmlns="http://www.w3.org/2000/svg" p-id="11610" xmlns:xlink="http://www.w3.org/1999/xlink" width="200" height="200"><defs><style type="text/css"></style></defs><path d="M910.3 147.7l-61.6-59.2-231.2 15.7-192.2-18H123.4l-30 123.1 15 217.7-15 169.7V879l129.1 24 290.7-16.1L743.6 903h130.6l36-60.1V466l-11-209.5 11.1-108.8zM513.4 886.8l6.4-0.4 1.4 0.1-7.8 0.3z" fill="#CD756B" p-id="11611"></path><path d="M123.4 86.1l27 108.1-42 232.8-15-217.7m7 307.6l21.5 293L222.5 903 93.4 879V596.7M341.2 86.1l108.1 43.5 252.2-31.2" fill="#F1CFCC" p-id="11612"></path><path d="M450 889.3L229.9 656.7l48-23 186.7-29.6-37.4-30.5L497.4 427l15.9-80.1 208.5-70.6 165.8 147.5 22.8 419.1-36 60.1-77.1-25.5L450 889.3z m0 0" fill="#AC5955" p-id="11613"></path><path d="M514.8 675.1l-0.1-287.6c-2.5-62.1 26.4-87.5 78.7-97 40.3-7.2 81.5-9.3 128.4-14.2 0 119.5-0.2 339.7-0.2 339.7l0.2 28.4s-105.9-8.3-207 30.7zM490.5 675.1c-101.1-39-207-30.7-207-30.8l0.2-28.4s-0.2-220.2-0.2-339.7c46.9 5 88.1 7 128.4 14.3 52.2 9.5 81.2 34.8 78.7 97l-0.1 287.6z" fill="#FFFFFF" p-id="11614"></path><path d="M524.7 695.3c72.6-11.8 145.9-23.6 226.1-36.7V330.2H768l0.1 342.5c-0.4 14.2-15.7 39.5-24.8 40l-204.7 0.1c-5.6-0.1-13.9-17.6-13.9-17.5zM478.8 695.3s-8.3 17.4-13.8 17.6l-203.7-0.1c-9.1-0.5-25.3-25.8-25.7-40V330.3h18.1v328.3c80.2 13.1 152.5 24.9 225.1 36.7z" fill="#B2B2B2" p-id="11615"></path><path d="M462 367.5c-1.9 0-3.7-1-4.6-2.8-2.8-5.4-11.9-13.3-39.2-20.7-2.8-0.7-4.4-3.6-3.7-6.4 0.7-2.8 3.6-4.4 6.3-3.7 25.2 6.8 40.1 15.2 45.7 25.9 1.3 2.5 0.4 5.7-2.2 7-0.7 0.6-1.5 0.7-2.3 0.7zM392.7 338.4c-0.3 0-0.6 0-0.9-0.1-39.3-7-81.3-8.6-81.7-8.6-2.9-0.1-5.1-2.5-5-5.4 0.1-2.9 2.6-5.2 5.4-5 0.4 0 43.1 1.6 83.1 8.7 2.8 0.5 4.7 3.2 4.2 6-0.4 2.7-2.6 4.4-5.1 4.4zM462 394.8c-1.9 0-3.7-1-4.6-2.8-2.4-4.6-8.5-9.1-17.6-13.2-2.6-1.2-3.8-4.2-2.6-6.8 1.2-2.6 4.2-3.8 6.8-2.6 11.6 5.2 18.9 11 22.5 17.9 1.3 2.5 0.4 5.7-2.2 7-0.7 0.3-1.5 0.5-2.3 0.5zM431.5 375.2c-0.6 0-1.1-0.1-1.7-0.3-24.1-8.3-57.8-12.8-81.8-15.2a5.18 5.18 0 1 1 1.1-10.3c24.5 2.4 59 7.1 84.1 15.7 2.7 0.9 4.1 3.9 3.2 6.6-0.7 2.1-2.7 3.5-4.9 3.5zM335.2 358.5h-0.4c-14.7-1.2-24.6-1.5-24.6-1.5-2.9-0.1-5.1-2.5-5-5.4 0.1-2.9 2.8-5.3 5.4-5 0 0 10.1 0.4 25.1 1.6 2.9 0.2 5 2.7 4.8 5.6-0.4 2.7-2.7 4.7-5.3 4.7zM462 422c-1.9 0-3.7-1-4.6-2.8-3-5.7-13.1-14.2-43.8-21.8-2.8-0.7-4.5-3.5-3.8-6.3 0.7-2.8 3.5-4.5 6.3-3.8 28.1 7 44.6 15.8 50.5 27.1 1.3 2.5 0.4 5.7-2.2 7-0.8 0.4-1.6 0.6-2.4 0.6zM402.6 394.8c-0.3 0-0.7 0-1-0.1-14.4-3-24.7-4.6-39.6-6.2-2.8-0.3-4.9-2.9-4.6-5.7 0.3-2.8 2.9-5 5.7-4.6 15.2 1.7 25.9 3.4 40.6 6.4 2.8 0.6 4.6 3.3 4 6.1-0.5 2.4-2.7 4.1-5.1 4.1zM348.9 387h-0.5c-21.7-2.1-38.2-2.8-38.3-2.8-2.9-0.1-5.1-2.5-5-5.4 0.1-2.9 2.6-5.5 5.4-5 0.2 0 16.9 0.6 39 2.8 2.8 0.3 4.9 2.8 4.6 5.7-0.3 2.7-2.5 4.7-5.2 4.7zM462 449.2c-1.9 0-3.7-1-4.6-2.8-3.8-7.1-19.7-20.5-84.6-29.4-2.8-0.4-4.8-3-4.4-5.8 0.4-2.8 3-4.8 5.8-4.4 53 7.3 84.1 19 92.4 34.9 1.3 2.5 0.4 5.7-2.2 7-0.8 0.3-1.6 0.5-2.4 0.5zM351.5 414.5h-0.5c-23-2.4-40.7-3-40.9-3-2.9-0.1-5.1-2.5-5-5.4 0.1-2.9 2.8-5.2 5.4-5 0.2 0 18.2 0.7 41.5 3.1 2.8 0.3 4.9 2.8 4.6 5.7-0.2 2.6-2.5 4.6-5.1 4.6zM462 476.4c-1.9 0-3.7-1-4.6-2.8-2.8-5.4-11.9-13.3-39.3-20.7-2.8-0.7-4.4-3.6-3.7-6.4 0.7-2.8 3.6-4.4 6.3-3.7 25.2 6.8 40.2 15.3 45.8 25.9 1.3 2.5 0.4 5.7-2.2 7-0.7 0.5-1.5 0.7-2.3 0.7zM399.4 448.6c-0.3 0-0.7 0-1-0.1-41.1-8-87.8-9.8-88.2-9.8-2.9-0.1-5.1-2.5-5-5.4 0.1-2.9 2.8-5.4 5.4-5 0.5 0 47.9 1.8 89.9 10 2.8 0.5 4.6 3.3 4.1 6.1-0.6 2.4-2.8 4.2-5.2 4.2zM462 503.7c-1.9 0-3.7-1-4.6-2.8-1.7-3.2-5.1-6.4-10.2-9.5-2.5-1.5-3.3-4.6-1.8-7.1 1.5-2.5 4.6-3.3 7.1-1.8 6.8 4 11.5 8.6 14.1 13.5 1.3 2.5 0.4 5.7-2.2 7-0.8 0.5-1.6 0.7-2.4 0.7z" fill="#E5E5E4" p-id="11616"></path><path d="M440.7 487.6c-0.7 0-1.4-0.1-2-0.4-22.6-9.7-58.3-15.1-84.4-17.9-2.8-0.3-4.9-2.9-4.6-5.7 0.3-2.9 2.8-5 5.7-4.6 26.7 2.9 63.6 8.4 87.4 18.7 2.6 1.1 3.8 4.2 2.7 6.8-0.9 1.9-2.8 3.1-4.8 3.1zM341.9 468h-0.5c-18.1-1.6-31.2-2.1-31.3-2.1-2.9-0.1-5.1-2.5-5-5.4 0.1-2.9 2.6-5.5 5.4-5 0.1 0 13.4 0.5 31.8 2.1 2.9 0.3 5 2.8 4.7 5.6-0.2 2.8-2.5 4.8-5.1 4.8zM462 530.9c-1.9 0-3.7-1-4.6-2.8-2.9-5.5-12.4-13.7-41-21.1-2.8-0.7-4.4-3.5-3.7-6.3 0.7-2.8 3.5-4.4 6.3-3.7 26.3 6.9 41.9 15.5 47.6 26.3 1.3 2.5 0.4 5.7-2.2 7-0.8 0.4-1.6 0.6-2.4 0.6zM406.1 504.4c-0.4 0-0.7 0-1.1-0.1-17-3.7-37.3-6.6-60.3-8.8-2.8-0.3-4.9-2.8-4.7-5.6 0.3-2.9 2.7-5.1 5.6-4.7 23.4 2.2 44.2 5.2 61.5 9 2.8 0.6 4.6 3.4 4 6.2-0.5 2.3-2.6 4-5 4zM329.6 494.2h-0.4c-11.6-0.8-19.1-1.1-19.1-1.1-2.9-0.1-5.1-2.5-5-5.4 0.1-2.9 2.6-5.3 5.4-5 0 0 7.6 0.3 19.5 1.1 2.9 0.2 5 2.7 4.8 5.5-0.2 2.8-2.5 4.9-5.2 4.9zM462 558.1c-1.9 0-3.7-1-4.6-2.8-3.8-7.1-19.7-20.5-84.6-29.4-2.8-0.4-4.8-3-4.4-5.8 0.4-2.8 3-4.7 5.8-4.4 53 7.3 84.1 19 92.4 34.9 1.3 2.5 0.4 5.7-2.2 7-0.8 0.3-1.6 0.5-2.4 0.5zM360.3 524.3h-0.6c-27.1-3.1-49.4-4-49.6-4-2.9-0.1-5.1-2.5-5-5.4 0.1-2.9 2.6-5.4 5.4-5 0.2 0 22.9 0.8 50.4 4 2.8 0.3 4.9 2.9 4.6 5.7-0.4 2.8-2.6 4.7-5.2 4.7zM462 585.3c-1.9 0-3.7-1-4.6-2.8-3.2-6.2-14.4-15.2-49.1-23.1-2.8-0.6-4.5-3.4-3.9-6.2 0.6-2.8 3.4-4.6 6.2-3.9 31.4 7.1 49.7 16.4 56 28.4 1.3 2.5 0.4 5.7-2.2 7-0.8 0.4-1.6 0.6-2.4 0.6zM390.1 555.7c-0.3 0-0.6 0-0.9-0.1-38.6-6.6-78.7-8.1-79.1-8.1-2.9-0.1-5.1-2.5-5-5.4 0.1-2.8 2.4-5 5.2-5h0.2c0.4 0 41.2 1.5 80.5 8.3 2.8 0.5 4.7 3.2 4.2 6-0.5 2.6-2.7 4.3-5.1 4.3zM462 612.5c-1.9 0-3.7-1-4.6-2.8-2-3.9-7.8-9.7-23.5-15.7-2.7-1-4-4-3-6.7s4-4 6.7-3c15.3 5.8 24.8 12.5 29 20.6 1.3 2.5 0.4 5.7-2.2 7-0.8 0.4-1.6 0.6-2.4 0.6zM422.9 590.2c-0.5 0-1-0.1-1.4-0.2-24.3-7-55.2-10.9-76.8-12.9-2.8-0.3-4.9-2.8-4.7-5.6 0.3-2.9 2.7-5 5.6-4.7 22.1 2.1 53.6 6 78.7 13.2 2.7 0.8 4.3 3.7 3.5 6.4-0.5 2.4-2.6 3.8-4.9 3.8zM330.9 576h-0.4c-12.3-0.9-20.4-1.2-20.4-1.2-2.9-0.1-5.1-2.5-5-5.4 0.1-2.9 2.6-5.3 5.4-5 0 0 8.2 0.3 20.8 1.2 2.9 0.2 5 2.7 4.8 5.5-0.2 2.8-2.5 4.9-5.2 4.9zM462 639.8c-1.9 0-3.7-1-4.6-2.8-2.1-4.1-7-8-14.4-11.7-2.6-1.3-3.6-4.4-2.3-7 1.3-2.6 4.4-3.6 7-2.3 9.5 4.8 15.8 10.1 19 16.2 1.3 2.5 0.4 5.7-2.2 7-0.9 0.4-1.7 0.6-2.5 0.6z" fill="#E5E5E4" p-id="11617"></path><path d="M435.7 621.7c-0.6 0-1.2-0.1-1.8-0.3-16-6-38.7-10.9-67.6-14.6-2.8-0.4-4.9-3-4.5-5.8 0.4-2.8 2.9-4.8 5.8-4.5 29.7 3.7 53.3 8.9 70 15.2 2.7 1 4 4 3 6.7-0.8 2-2.8 3.3-4.9 3.3zM353.1 605.2h-0.5c-23.8-2.5-42.2-3.2-42.4-3.2-2.9-0.1-5.1-2.5-5-5.4 0.1-2.9 2.8-5.5 5.4-5 0.2 0 19 0.7 43.1 3.2 2.8 0.3 4.9 2.9 4.6 5.7-0.4 2.7-2.6 4.7-5.2 4.7z" fill="#E5E5E4" p-id="11618"></path><path d="M535.6 367.5c-0.8 0-1.6-0.2-2.4-0.6-2.5-1.3-3.5-4.5-2.2-7 5.6-10.6 20.5-19.1 45.7-25.9 2.7-0.7 5.6 0.9 6.3 3.7 0.7 2.8-0.9 5.6-3.7 6.4-27.3 7.4-36.4 15.3-39.2 20.7-0.9 1.7-2.7 2.7-4.5 2.7zM604.8 338.4c-2.5 0-4.7-1.8-5.1-4.3-0.5-2.8 1.4-5.5 4.2-6 40.1-7.1 82.7-8.7 83.1-8.7 2.8-0.2 5.3 2.1 5.4 5 0.1 2.9-2.1 5.3-5 5.4-0.4 0-42.3 1.6-81.7 8.6h-0.9zM535.6 394.8c-0.8 0-1.6-0.2-2.4-0.6-2.5-1.3-3.5-4.5-2.2-7 3.6-6.8 10.9-12.7 22.5-17.9 2.6-1.2 5.7 0 6.8 2.6 1.2 2.6 0 5.7-2.6 6.9-9.1 4.1-15.2 8.7-17.6 13.2-0.9 1.8-2.7 2.8-4.5 2.8zM566 375.2c-2.2 0-4.2-1.4-4.9-3.5-0.9-2.7 0.5-5.7 3.2-6.6 25.1-8.6 59.6-13.3 84.1-15.7a5.18 5.18 0 1 1 1.1 10.3c-24 2.4-57.6 6.9-81.8 15.2-0.6 0.2-1.1 0.3-1.7 0.3zM662.4 358.5c-2.7 0-4.9-2.1-5.2-4.8-0.2-2.9 1.9-5.4 4.8-5.6 15-1.2 25.1-1.6 25.1-1.6 2.6-0.3 5.3 2.1 5.4 5 0.1 2.9-2.1 5.3-5 5.4-0.1 0-9.9 0.4-24.6 1.5-0.2 0.1-0.4 0.1-0.5 0.1zM535.6 422c-0.8 0-1.6-0.2-2.4-0.6-2.5-1.3-3.5-4.5-2.2-7 5.9-11.2 22.4-20.1 50.5-27.1 2.7-0.7 5.6 1 6.3 3.8 0.7 2.8-1 5.6-3.8 6.3-30.8 7.6-40.8 16.1-43.8 21.8-1 1.8-2.8 2.8-4.6 2.8zM595 394.8c-2.4 0-4.6-1.7-5.1-4.1-0.6-2.8 1.2-5.5 4-6.1 14.7-3 25.3-4.7 40.6-6.4 2.8-0.4 5.4 1.7 5.7 4.6 0.3 2.8-1.7 5.4-4.6 5.7-14.9 1.7-25.3 3.3-39.6 6.2-0.4 0-0.7 0.1-1 0.1zM648.6 387c-2.6 0-4.9-2-5.2-4.7-0.3-2.9 1.8-5.4 4.6-5.7 22.1-2.2 38.8-2.8 39-2.8 2.8-0.5 5.3 2.1 5.4 5 0.1 2.9-2.1 5.3-5 5.4-0.2 0-16.6 0.6-38.3 2.8h-0.5zM535.6 449.2c-0.8 0-1.6-0.2-2.4-0.6-2.5-1.3-3.5-4.5-2.2-7 8.3-15.9 39.4-27.6 92.4-34.9 2.8-0.4 5.4 1.6 5.8 4.4 0.4 2.8-1.6 5.5-4.4 5.8-64.9 8.9-80.9 22.2-84.6 29.4-1 1.9-2.8 2.9-4.6 2.9zM646 414.5c-2.6 0-4.9-2-5.2-4.7-0.3-2.8 1.8-5.4 4.6-5.7 23.3-2.4 41.4-3.1 41.5-3.1 2.6-0.2 5.3 2.1 5.4 5 0.1 2.9-2.1 5.3-5 5.4-0.2 0-17.9 0.7-40.9 3 0 0.1-0.2 0.1-0.4 0.1zM535.6 476.4c-0.8 0-1.6-0.2-2.4-0.6-2.5-1.3-3.5-4.5-2.2-7 5.6-10.6 20.5-19.1 45.8-25.9 2.7-0.7 5.6 0.9 6.3 3.7 0.7 2.8-0.9 5.6-3.7 6.4-27.4 7.4-36.5 15.3-39.3 20.7-0.9 1.7-2.7 2.7-4.5 2.7zM598.2 448.6c-2.4 0-4.6-1.7-5.1-4.2-0.5-2.8 1.3-5.5 4.1-6.1 41.9-8.2 89.4-10 89.9-10 2.6-0.4 5.3 2.1 5.4 5 0.1 2.9-2.1 5.3-5 5.4-0.5 0-47.1 1.8-88.2 9.8-0.5 0-0.8 0.1-1.1 0.1zM535.6 503.7c-0.8 0-1.6-0.2-2.4-0.6-2.5-1.3-3.5-4.5-2.2-7 2.6-4.9 7.3-9.5 14.1-13.5 2.5-1.5 5.6-0.7 7.1 1.8s0.7 5.6-1.8 7.1c-5.1 3-8.5 6.2-10.2 9.5-1 1.6-2.8 2.7-4.6 2.7z" fill="#E5E5E4" p-id="11619"></path><path d="M556.8 487.6c-2 0-3.9-1.2-4.8-3.1-1.1-2.6 0.1-5.7 2.7-6.8 23.7-10.3 60.6-15.8 87.4-18.7 2.9-0.3 5.4 1.8 5.7 4.6 0.3 2.8-1.8 5.4-4.6 5.7-26 2.8-61.8 8.2-84.4 17.9-0.6 0.2-1.3 0.4-2 0.4zM655.7 468c-2.7 0-4.9-2-5.2-4.7-0.3-2.9 1.8-5.4 4.7-5.6 18.4-1.6 31.7-2.1 31.8-2.1 2.8-0.5 5.3 2.1 5.4 5 0.1 2.9-2.1 5.3-5 5.4-0.1 0-13.2 0.5-31.3 2.1-0.1-0.1-0.3-0.1-0.4-0.1zM535.6 530.9c-0.8 0-1.6-0.2-2.4-0.6-2.5-1.3-3.5-4.5-2.2-7 5.7-10.9 21.3-19.5 47.6-26.3 2.8-0.7 5.6 0.9 6.3 3.7 0.7 2.8-0.9 5.6-3.7 6.3-28.6 7.5-38.1 15.6-41 21.1-1 1.8-2.8 2.8-4.6 2.8zM591.4 504.4c-2.4 0-4.5-1.7-5.1-4.1-0.6-2.8 1.2-5.6 4-6.2 17.4-3.8 38.1-6.8 61.5-9 2.9-0.3 5.4 1.8 5.6 4.7 0.3 2.8-1.8 5.4-4.7 5.6-23 2.2-43.3 5.1-60.3 8.8-0.2 0.2-0.6 0.2-1 0.2zM667.9 494.2c-2.7 0-5-2.1-5.2-4.8-0.2-2.9 1.9-5.3 4.8-5.5 11.9-0.9 19.5-1.1 19.5-1.1 2.8-0.3 5.3 2.1 5.4 5 0.1 2.9-2.1 5.3-5 5.4 0 0-7.5 0.3-19.1 1.1-0.1-0.1-0.3-0.1-0.4-0.1zM535.6 558.1c-0.8 0-1.6-0.2-2.4-0.6-2.5-1.3-3.5-4.5-2.2-7 8.3-15.9 39.4-27.6 92.4-34.9 2.8-0.4 5.4 1.6 5.8 4.4 0.4 2.8-1.6 5.5-4.4 5.8-64.9 8.9-80.9 22.2-84.6 29.4-1 1.9-2.8 2.9-4.6 2.9zM637.2 524.3c-2.6 0-4.8-2-5.1-4.6-0.3-2.9 1.7-5.4 4.6-5.7 27.5-3.2 50.2-4 50.4-4 2.8-0.4 5.3 2.1 5.4 5 0.1 2.9-2.1 5.3-5 5.4-0.2 0-22.5 0.8-49.6 4-0.3-0.1-0.5-0.1-0.7-0.1zM535.6 585.3c-0.8 0-1.6-0.2-2.4-0.6-2.5-1.3-3.5-4.5-2.2-7 6.3-12 24.6-21.3 56-28.4 2.8-0.6 5.6 1.1 6.2 3.9 0.6 2.8-1.1 5.6-3.9 6.2-34.7 7.9-45.9 16.9-49.1 23.1-1 1.8-2.8 2.8-4.6 2.8zM607.5 555.7c-2.5 0-4.7-1.8-5.1-4.3-0.5-2.8 1.4-5.5 4.2-6 39.2-6.7 80-8.3 80.5-8.3h0.2c2.8 0 5.1 2.2 5.2 5 0.1 2.9-2.1 5.3-5 5.4-0.4 0-40.5 1.5-79.1 8.1-0.3 0.1-0.6 0.1-0.9 0.1zM535.6 612.5c-0.8 0-1.6-0.2-2.4-0.6-2.5-1.3-3.5-4.5-2.2-7 4.2-8 13.7-14.8 29-20.6 2.7-1 5.7 0.3 6.7 3s-0.3 5.7-3 6.7c-15.8 6-21.5 11.8-23.5 15.7-1 1.8-2.8 2.8-4.6 2.8zM574.6 590.2c-2.2 0-4.3-1.5-5-3.8-0.8-2.7 0.8-5.6 3.5-6.4 25.1-7.2 56.7-11.2 78.7-13.2 2.9-0.4 5.4 1.8 5.6 4.7 0.3 2.8-1.8 5.4-4.7 5.6-21.6 2-52.5 5.9-76.8 12.9-0.3 0.2-0.8 0.2-1.3 0.2zM666.6 576c-2.7 0-5-2.1-5.2-4.8-0.2-2.9 1.9-5.3 4.8-5.5 12.6-0.9 20.8-1.2 20.8-1.2 2.8-0.3 5.3 2.1 5.4 5 0.1 2.9-2.1 5.3-5 5.4 0 0-8.1 0.3-20.4 1.2-0.1-0.1-0.2-0.1-0.4-0.1zM535.6 639.8c-0.8 0-1.6-0.2-2.4-0.6-2.5-1.3-3.5-4.5-2.2-7 3.2-6.1 9.4-11.4 19-16.2 2.6-1.3 5.7-0.2 7 2.3 1.3 2.6 0.2 5.7-2.3 7-7.4 3.7-12.3 7.7-14.4 11.7-1.1 1.8-2.9 2.8-4.7 2.8z" fill="#E5E5E4" p-id="11620"></path><path d="M561.8 621.7c-2.1 0-4.1-1.3-4.8-3.4-1-2.7 0.3-5.7 3-6.7 16.7-6.3 40.3-11.4 70-15.2 2.9-0.3 5.4 1.7 5.8 4.5 0.4 2.8-1.7 5.4-4.5 5.8-28.9 3.6-51.7 8.5-67.6 14.6-0.6 0.2-1.2 0.4-1.9 0.4zM644.5 605.2c-2.6 0-4.9-2-5.2-4.6-0.3-2.8 1.8-5.4 4.6-5.7 24.1-2.5 42.9-3.2 43.1-3.2 2.6-0.5 5.3 2.1 5.4 5 0.1 2.9-2.1 5.3-5 5.4-0.2 0-18.7 0.7-42.4 3.2-0.2-0.1-0.4-0.1-0.5-0.1z" fill="#E5E5E4" p-id="11621"></path></svg>